<mxfile host="app.diagrams.net" modified="2023-08-29T21:53:55.623Z" agent="Mozilla/5.0 (Windows NT 10.0; Win64; x64) AppleWebKit/537.36 (KHTML, like Gecko) Chrome/116.0.0.0 Safari/537.36" etag="qvpZuynjN-tG2U0ss5Ch" version="21.6.9" type="github">
  <diagram id="R2lEEEUBdFMjLlhIrx00" name="Page-1">
    <mxGraphModel dx="1434" dy="790" grid="1" gridSize="10" guides="1" tooltips="1" connect="1" arrows="1" fold="1" page="1" pageScale="1" pageWidth="850" pageHeight="1100" math="0" shadow="0" extFonts="Permanent Marker^https://fonts.googleapis.com/css?family=Permanent+Marker">
      <root>
        <mxCell id="0" />
        <mxCell id="1" parent="0" />
        <mxCell id="NWQEua2oyk7CyxeXQWuC-1" value="DEPARTAMENTO" style="rounded=0;whiteSpace=wrap;html=1;" vertex="1" parent="1">
          <mxGeometry x="200" y="190" width="120" height="60" as="geometry" />
        </mxCell>
        <mxCell id="NWQEua2oyk7CyxeXQWuC-2" value="" style="endArrow=none;dashed=1;html=1;rounded=0;" edge="1" parent="1">
          <mxGeometry width="50" height="50" relative="1" as="geometry">
            <mxPoint x="320" y="219.5" as="sourcePoint" />
            <mxPoint x="390" y="219.5" as="targetPoint" />
          </mxGeometry>
        </mxCell>
        <mxCell id="NWQEua2oyk7CyxeXQWuC-3" value="1" style="text;html=1;strokeColor=none;fillColor=none;align=center;verticalAlign=middle;whiteSpace=wrap;rounded=0;" vertex="1" parent="1">
          <mxGeometry x="310" y="190" width="60" height="30" as="geometry" />
        </mxCell>
        <mxCell id="NWQEua2oyk7CyxeXQWuC-4" value="E" style="rhombus;whiteSpace=wrap;html=1;" vertex="1" parent="1">
          <mxGeometry x="385" y="180" width="80" height="80" as="geometry" />
        </mxCell>
        <mxCell id="NWQEua2oyk7CyxeXQWuC-5" value="" style="endArrow=none;dashed=1;html=1;rounded=0;" edge="1" parent="1">
          <mxGeometry width="50" height="50" relative="1" as="geometry">
            <mxPoint x="465" y="220" as="sourcePoint" />
            <mxPoint x="535" y="220" as="targetPoint" />
          </mxGeometry>
        </mxCell>
        <mxCell id="NWQEua2oyk7CyxeXQWuC-6" value="N" style="text;html=1;strokeColor=none;fillColor=none;align=center;verticalAlign=middle;whiteSpace=wrap;rounded=0;" vertex="1" parent="1">
          <mxGeometry x="465" y="190" width="60" height="30" as="geometry" />
        </mxCell>
        <mxCell id="NWQEua2oyk7CyxeXQWuC-7" value="FUNCIONÁRIO" style="rounded=0;whiteSpace=wrap;html=1;" vertex="1" parent="1">
          <mxGeometry x="525" y="190" width="120" height="60" as="geometry" />
        </mxCell>
        <mxCell id="NWQEua2oyk7CyxeXQWuC-8" value="1" style="text;html=1;strokeColor=none;fillColor=none;align=center;verticalAlign=middle;whiteSpace=wrap;rounded=0;" vertex="1" parent="1">
          <mxGeometry x="570" y="280" width="60" height="30" as="geometry" />
        </mxCell>
        <mxCell id="NWQEua2oyk7CyxeXQWuC-9" value="" style="endArrow=none;dashed=1;html=1;rounded=0;" edge="1" parent="1">
          <mxGeometry width="50" height="50" relative="1" as="geometry">
            <mxPoint x="584.5" y="320" as="sourcePoint" />
            <mxPoint x="584.5" y="250" as="targetPoint" />
          </mxGeometry>
        </mxCell>
        <mxCell id="NWQEua2oyk7CyxeXQWuC-11" value="P" style="rhombus;whiteSpace=wrap;html=1;" vertex="1" parent="1">
          <mxGeometry x="545" y="310" width="80" height="80" as="geometry" />
        </mxCell>
        <mxCell id="NWQEua2oyk7CyxeXQWuC-12" value="" style="endArrow=none;dashed=1;html=1;rounded=0;" edge="1" parent="1">
          <mxGeometry width="50" height="50" relative="1" as="geometry">
            <mxPoint x="584.5" y="460" as="sourcePoint" />
            <mxPoint x="584.5" y="390" as="targetPoint" />
          </mxGeometry>
        </mxCell>
        <mxCell id="NWQEua2oyk7CyxeXQWuC-13" value="PROJETO" style="rounded=0;whiteSpace=wrap;html=1;" vertex="1" parent="1">
          <mxGeometry x="525" y="460" width="120" height="60" as="geometry" />
        </mxCell>
        <mxCell id="NWQEua2oyk7CyxeXQWuC-14" value="N" style="text;html=1;strokeColor=none;fillColor=none;align=center;verticalAlign=middle;whiteSpace=wrap;rounded=0;" vertex="1" parent="1">
          <mxGeometry x="570" y="390" width="60" height="30" as="geometry" />
        </mxCell>
        <mxCell id="NWQEua2oyk7CyxeXQWuC-15" value="" style="endArrow=none;dashed=1;html=1;rounded=0;" edge="1" parent="1">
          <mxGeometry width="50" height="50" relative="1" as="geometry">
            <mxPoint x="584.5" y="590" as="sourcePoint" />
            <mxPoint x="584.5" y="520" as="targetPoint" />
          </mxGeometry>
        </mxCell>
        <mxCell id="NWQEua2oyk7CyxeXQWuC-16" value="U" style="rhombus;whiteSpace=wrap;html=1;" vertex="1" parent="1">
          <mxGeometry x="545" y="590" width="80" height="80" as="geometry" />
        </mxCell>
      </root>
    </mxGraphModel>
  </diagram>
</mxfile>
